<svg width="1728" height="1934" viewBox="0 0 1728 1934" fill="none" xmlns="http://www.w3.org/2000/svg">
<path opacity="0.0144928" d="M1587.23 1634.65C1596.29 1639.45 1607.43 1637.69 1614.55 1630.32L1840.88 1396.24C1845.1 1391.88 1847.42 1386.04 1847.35 1379.97L1841.73 913.909C1841.67 909.142 1840.14 904.511 1837.33 900.656L1597.19 570.549C1592.1 563.559 1583.53 560.011 1574.99 561.363L1294.54 605.782C1286 607.134 1278.94 613.159 1276.27 621.378L1149.88 1009.54C1148.41 1014.07 1148.37 1018.95 1149.79 1023.5L1288.47 1468.49C1290.28 1474.28 1294.29 1479.12 1299.65 1481.96L1587.23 1634.65Z" stroke="url(#paint0_linear_658_6046)" stroke-width="4"/>
<path opacity="0.0289855" d="M1536.08 1633.16C1544.86 1638.4 1556.04 1637.23 1563.53 1630.27L1800.45 1410.33C1804.9 1406.2 1807.53 1400.47 1807.78 1394.41L1826.61 932.976C1826.8 928.198 1825.5 923.478 1822.89 919.473L1601.81 580.496C1597.09 573.265 1588.73 569.284 1580.14 570.186L1299.43 599.69C1290.84 600.593 1283.49 606.227 1280.38 614.28L1134.6 991.815C1132.88 996.276 1132.59 1001.16 1133.78 1005.8L1248.13 1453.23C1249.63 1459.11 1253.4 1464.16 1258.61 1467.27L1536.08 1633.16Z" stroke="url(#paint1_linear_658_6046)" stroke-width="4"/>
<path opacity="0.0434783" d="M1485.32 1630.12C1493.8 1635.79 1504.99 1635.2 1512.83 1628.68L1759.47 1423.33C1764.14 1419.44 1767.09 1413.85 1767.65 1407.8L1810.43 952.271C1810.88 947.496 1809.82 942.7 1807.41 938.555L1605.66 591.788C1601.32 584.336 1593.18 579.935 1584.58 580.386L1304.39 595.07C1295.78 595.521 1288.15 600.749 1284.61 608.613L1120.21 974.569C1118.25 978.944 1117.7 983.824 1118.65 988.526L1208.8 1437.09C1210 1443.05 1213.51 1448.29 1218.56 1451.67L1485.32 1630.12Z" stroke="url(#paint2_linear_658_6046)" stroke-width="4"/>
<path opacity="0.057971" d="M1435.04 1625.56C1443.19 1631.64 1454.37 1631.64 1462.52 1625.56L1718.02 1435.22C1722.9 1431.58 1726.15 1426.15 1727.03 1420.13L1793.19 971.737C1793.89 966.977 1793.09 962.117 1790.88 957.841L1608.67 604.37C1604.72 596.717 1596.83 591.909 1588.22 591.909L1309.34 591.909C1300.73 591.909 1292.84 596.717 1288.9 604.37L1106.68 957.841C1104.48 962.117 1103.67 966.977 1104.37 971.737L1170.53 1420.13C1171.42 1426.15 1174.66 1431.58 1179.54 1435.22L1435.04 1625.56Z" stroke="url(#paint3_linear_658_6046)" stroke-width="4"/>
<path opacity="0.0724638" d="M1385.31 1619.54C1393.13 1626 1404.25 1626.58 1412.7 1620.97L1676.16 1445.99C1681.24 1442.62 1684.77 1437.36 1685.98 1431.39L1774.89 991.313C1775.84 986.582 1775.29 981.671 1773.3 977.274L1610.77 618.184C1607.22 610.351 1599.6 605.149 1591.02 604.699L1314.2 590.192C1305.62 589.742 1297.5 594.119 1293.15 601.538L1093.97 941.672C1091.53 945.837 1090.47 950.663 1090.92 955.468L1133.35 1402.42C1133.92 1408.49 1136.88 1414.09 1141.58 1417.97L1385.31 1619.54Z" stroke="url(#paint4_linear_658_6046)" stroke-width="4"/>
<path opacity="0.0869565" d="M1336.22 1612.08C1343.67 1618.91 1354.71 1620.07 1363.43 1614.94L1633.95 1455.63C1639.21 1452.53 1643.03 1447.47 1644.55 1441.55L1755.52 1010.94C1756.73 1006.25 1756.43 1001.3 1754.66 996.796L1611.9 633.169C1608.76 625.176 1601.43 619.597 1592.89 618.7L1318.9 589.901C1310.36 589.004 1302.03 592.937 1297.3 600.103L1082.05 926.102C1079.38 930.143 1078.06 934.922 1078.27 939.759L1097.29 1384.03C1097.55 1390.13 1100.22 1395.88 1104.73 1400.01L1336.22 1612.08Z" stroke="url(#paint5_linear_658_6046)" stroke-width="4"/>
<path opacity="0.101449" d="M1287.83 1603.24C1294.91 1610.42 1305.83 1612.15 1314.78 1607.51L1591.46 1464.13C1596.89 1461.32 1600.98 1456.45 1602.81 1450.62L1735.1 1030.56C1736.56 1025.93 1736.52 1020.96 1734.97 1016.35L1612.01 649.26C1609.29 641.13 1602.27 635.19 1593.8 633.849L1323.35 591.013C1314.88 589.672 1306.37 593.152 1301.26 600.043L1070.88 911.168C1067.99 915.071 1066.41 919.79 1066.37 924.647L1062.38 1365.02C1062.32 1371.14 1064.71 1377.03 1069 1381.38L1287.83 1603.24Z" stroke="url(#paint6_linear_658_6046)" stroke-width="4"/>
<path opacity="0.115942" d="M1240.2 1593.08C1246.89 1600.59 1257.68 1602.88 1266.84 1598.74L1548.74 1471.49C1554.33 1468.96 1558.67 1464.32 1560.82 1458.58L1713.63 1050.12C1715.34 1045.56 1715.55 1040.57 1714.24 1035.88L1611.04 666.391C1608.74 658.145 1602.05 651.861 1593.67 650.08L1327.48 593.5C1319.11 591.72 1310.44 594.738 1304.98 601.335L1060.42 896.903C1057.31 900.658 1055.48 905.302 1055.18 910.166L1028.65 1345.46C1028.28 1351.58 1030.36 1357.59 1034.43 1362.17L1240.2 1593.08Z" stroke="url(#paint7_linear_658_6046)" stroke-width="4"/>
<path opacity="0.130435" d="M1193.42 1581.65C1199.7 1589.46 1210.32 1592.3 1219.66 1588.68L1505.87 1477.7C1511.59 1475.48 1516.19 1471.06 1518.64 1465.44L1691.12 1069.56C1693.07 1065.08 1693.55 1060.09 1692.47 1055.32L1608.96 684.492C1607.08 676.152 1600.73 669.542 1592.47 667.329L1331.23 597.33C1322.97 595.118 1314.17 597.668 1308.37 603.951L1050.63 883.341C1047.32 886.935 1045.23 891.492 1044.68 896.35L996.119 1325.43C995.429 1331.53 997.204 1337.65 1001.05 1342.43L1193.42 1581.65Z" stroke="url(#paint8_linear_658_6046)" stroke-width="4"/>
<path opacity="0.144928" d="M1147.54 1569C1153.4 1577.09 1163.81 1580.47 1173.31 1577.37L1462.89 1482.76C1468.74 1480.85 1473.57 1476.69 1476.32 1471.19L1667.58 1088.82C1669.78 1084.44 1670.51 1079.46 1669.68 1074.63L1605.7 703.493C1604.25 695.081 1598.26 688.164 1590.14 685.526L1334.52 602.471C1326.41 599.833 1317.49 601.908 1311.38 607.861L1041.47 870.511C1037.95 873.933 1035.63 878.389 1034.82 883.228L964.805 1304.99C963.799 1311.05 965.261 1317.27 968.866 1322.24L1147.54 1569Z" stroke="url(#paint9_linear_658_6046)" stroke-width="4"/>
<path opacity="0.15942" d="M1102.61 1555.2C1108.04 1563.55 1118.22 1567.46 1127.84 1564.88L1419.89 1486.69C1425.83 1485.1 1430.89 1481.19 1433.93 1475.84L1643.03 1107.86C1645.47 1103.58 1646.46 1098.63 1645.87 1093.74L1601.24 723.32C1600.22 714.858 1594.6 707.653 1586.65 704.599L1337.3 608.882C1329.34 605.828 1320.34 607.424 1313.92 613.03L1032.89 858.441C1029.19 861.679 1026.62 866.021 1025.56 870.829L934.721 1284.21C933.4 1290.22 934.544 1296.51 937.898 1301.68L1102.61 1555.2Z" stroke="url(#paint10_linear_658_6046)" stroke-width="4"/>
<path opacity="0.173913" d="M1058.69 1540.31C1063.67 1548.9 1073.61 1553.32 1083.32 1551.27L1376.9 1489.5C1382.94 1488.23 1388.21 1484.59 1391.53 1479.4L1617.5 1126.6C1620.16 1122.44 1621.42 1117.54 1621.07 1112.61L1595.53 743.898C1594.95 735.408 1589.72 727.937 1581.94 724.475L1339.48 616.524C1331.71 613.062 1322.66 614.176 1315.95 619.42L1024.86 847.155C1020.97 850.199 1018.16 854.415 1016.85 859.178L905.874 1263.17C904.241 1269.11 905.064 1275.47 908.158 1280.8L1058.69 1540.31Z" stroke="url(#paint11_linear_658_6046)" stroke-width="4"/>
<path opacity="0.188406" d="M1015.84 1524.4C1020.36 1533.2 1030.02 1538.12 1039.8 1536.61L1334 1491.19C1340.11 1490.24 1345.58 1486.89 1349.18 1481.87L1590.99 1145.01C1593.88 1140.98 1595.4 1136.13 1595.3 1131.18L1588.56 765.15C1588.4 756.655 1583.57 748.938 1576 745.081L1341.02 625.35C1333.45 621.493 1324.37 622.123 1317.4 626.99L1017.32 836.677C1013.25 839.516 1010.22 843.592 1008.66 848.298L878.271 1241.93C876.329 1247.79 876.826 1254.19 879.652 1259.68L1015.84 1524.4Z" stroke="url(#paint12_linear_658_6046)" stroke-width="4"/>
<path opacity="0.202899" d="M974.088 1507.54C978.153 1516.52 987.498 1521.92 997.316 1520.95L1291.25 1491.78C1297.4 1491.17 1303.05 1488.1 1306.92 1483.27L1563.55 1163.03C1566.66 1159.15 1568.43 1154.37 1568.59 1149.39L1580.29 787C1580.56 778.522 1576.14 770.581 1568.8 766.34L1341.86 635.315C1334.51 631.073 1325.42 631.22 1318.22 635.696L1010.23 827.024C1006 829.65 1002.74 833.574 1000.93 838.209L851.911 1220.57C849.664 1226.34 849.835 1232.76 852.384 1238.4L974.088 1507.54Z" stroke="url(#paint13_linear_658_6046)" stroke-width="4"/>
<path opacity="0.217391" d="M933.487 1489.79C937.081 1498.95 946.097 1504.8 955.921 1504.36L1248.69 1491.29C1254.88 1491.01 1260.7 1488.25 1264.82 1483.62L1535.19 1180.62C1538.51 1176.9 1540.53 1172.19 1540.95 1167.21L1570.69 809.37C1571.39 800.93 1567.4 792.788 1560.3 788.175L1341.93 646.366C1334.83 641.754 1325.77 641.418 1318.34 645.492L1003.54 818.216C999.158 820.618 995.681 824.379 993.63 828.931L826.792 1199.16C824.245 1204.81 824.087 1211.25 826.353 1217.02L933.487 1489.79Z" stroke="url(#paint14_linear_658_6046)" stroke-width="4"/>
<path opacity="0.231884" d="M894.07 1471.24C897.189 1480.53 905.852 1486.83 915.652 1486.92L1206.39 1489.73C1212.59 1489.79 1218.56 1487.34 1222.94 1482.94L1505.94 1197.72C1509.47 1194.17 1511.74 1189.55 1512.41 1184.59L1559.77 832.181C1560.89 823.801 1557.33 815.48 1550.49 810.51L1341.2 658.453C1334.36 653.483 1325.35 652.667 1317.72 656.327L997.199 810.266C992.681 812.435 988.996 816.021 986.703 820.477L802.905 1177.77C800.065 1183.29 799.577 1189.72 801.553 1195.61L894.07 1471.24Z" stroke="url(#paint15_linear_658_6046)" stroke-width="4"/>
<path opacity="0.246377" d="M855.872 1451.96C858.509 1461.36 866.799 1468.07 876.546 1468.7L1164.39 1487.15C1170.6 1487.55 1176.7 1485.41 1181.31 1481.24L1475.84 1214.3C1479.57 1210.92 1482.09 1206.42 1483.01 1201.47L1547.49 855.352C1549.04 847.055 1545.91 838.577 1539.35 833.266L1339.61 671.519C1333.05 666.207 1324.11 664.915 1316.32 668.152L991.168 803.185C986.522 805.115 982.638 808.514 980.108 812.862L780.241 1156.46C777.114 1161.83 776.297 1168.25 777.977 1174.24L855.872 1451.96Z" stroke="url(#paint16_linear_658_6046)" stroke-width="4"/>
<path opacity="0.26087" d="M818.919 1432.01C821.072 1441.5 828.967 1448.61 838.632 1449.76L1122.76 1483.55C1128.94 1484.29 1135.16 1482.49 1140 1478.55L1444.93 1230.3C1448.85 1227.12 1451.6 1222.73 1452.78 1217.82L1533.86 878.807C1535.82 870.613 1533.14 862.003 1526.88 856.365L1337.12 685.507C1330.86 679.869 1322.02 678.106 1314.07 680.912L985.395 796.984C980.634 798.666 976.558 801.867 973.797 806.095L758.784 1135.31C755.377 1140.52 754.232 1146.9 755.61 1152.97L818.919 1432.01Z" stroke="url(#paint17_linear_658_6046)" stroke-width="4"/>
<path opacity="0.275362" d="M783.235 1411.48C784.902 1421.04 792.384 1428.52 801.938 1430.19L1081.53 1478.98C1087.68 1480.05 1094 1478.58 1099.04 1474.9L1413.24 1245.7C1417.33 1242.71 1420.32 1238.45 1421.75 1233.59L1518.87 902.466C1521.24 894.395 1519.01 885.676 1513.06 879.729L1333.69 700.357C1327.74 694.41 1319.02 692.183 1310.95 694.55L979.831 791.669C974.967 793.095 970.711 796.089 967.723 800.184L738.515 1114.38C734.837 1119.42 733.366 1125.74 734.439 1131.89L783.235 1411.48Z" stroke="url(#paint18_linear_658_6046)" stroke-width="4"/>
<path opacity="0.289855" d="M748.839 1390.45C750.02 1400.04 757.07 1407.87 766.485 1410.05L1040.77 1473.46C1046.86 1474.87 1053.26 1473.74 1058.5 1470.33L1380.8 1260.44C1385.07 1257.66 1388.29 1253.55 1389.97 1248.74L1502.52 926.25C1505.29 918.323 1503.52 909.52 1497.9 903.281L1329.28 716.01C1323.66 709.772 1315.09 707.089 1306.92 709.012L974.428 787.243C969.475 788.408 965.047 791.184 961.84 795.134L719.413 1093.73C715.472 1098.58 713.677 1104.83 714.441 1111.04L748.839 1390.45Z" stroke="url(#paint19_linear_658_6046)" stroke-width="4"/>
<path opacity="0.304348" d="M715.746 1368.98C716.441 1378.59 723.044 1386.74 732.293 1389.42L1000.5 1467.03C1006.52 1468.77 1012.99 1467.98 1018.41 1464.85L1347.67 1274.49C1352.09 1271.94 1355.54 1267.98 1357.46 1263.25L1484.83 950.082C1487.98 942.32 1486.67 933.455 1481.4 926.943L1323.86 732.403C1318.59 725.891 1310.19 722.762 1301.94 724.236L969.138 783.708C964.109 784.606 959.522 787.154 956.101 790.949L701.451 1073.44C697.258 1078.09 695.143 1084.25 695.595 1090.5L715.746 1368.98Z" stroke="url(#paint20_linear_658_6046)" stroke-width="4"/>
<path opacity="0.318841" d="M683.966 1347.17C684.177 1356.76 690.318 1365.21 699.373 1368.37L960.788 1459.72C966.711 1461.79 973.223 1461.35 978.814 1458.5L1313.88 1287.83C1318.45 1285.5 1322.11 1281.71 1324.28 1277.06L1465.79 973.886C1469.33 966.307 1468.47 957.405 1463.56 950.639L1317.4 749.473C1312.48 742.706 1304.28 739.142 1295.98 740.164L963.913 781.062C958.821 781.689 954.086 784 950.459 787.628L684.6 1053.55C680.164 1057.99 677.733 1064.05 677.871 1070.32L683.966 1347.17Z" stroke="url(#paint21_linear_658_6046)" stroke-width="4"/>
<path opacity="0.333333" d="M653.505 1325.07C653.235 1334.63 658.901 1343.35 667.736 1346.99L921.659 1451.57C927.471 1453.97 934.01 1453.88 939.755 1451.33L1279.47 1300.41C1284.18 1298.32 1288.05 1294.71 1290.46 1290.16L1445.43 997.585C1449.34 990.208 1448.94 981.294 1444.39 974.293L1309.87 767.154C1305.33 760.153 1297.35 756.165 1289.02 756.734L958.705 779.302C953.566 779.653 948.694 781.719 944.869 785.169L668.829 1034.14C664.161 1038.35 661.42 1044.28 661.243 1050.57L653.505 1325.07Z" stroke="url(#paint22_linear_658_6046)" stroke-width="4"/>
<path opacity="0.347826" d="M624.362 1302.78C623.617 1312.27 628.795 1321.24 637.386 1325.34L883.155 1442.63C888.839 1445.34 895.386 1445.6 901.269 1443.36L1244.5 1312.22C1249.33 1310.37 1253.4 1306.95 1256.05 1302.51L1423.76 1021.11C1428.02 1013.95 1428.09 1005.05 1423.92 997.832L1301.26 785.381C1297.1 778.166 1289.35 773.768 1281.02 773.883L953.468 778.421C948.296 778.492 943.299 780.305 939.284 783.567L654.101 1015.25C649.213 1019.22 646.167 1025.02 645.674 1031.3L624.362 1302.78Z" stroke="url(#paint23_linear_658_6046)" stroke-width="4"/>
<path opacity="0.362319" d="M596.536 1280.37C595.322 1289.78 600.002 1298.96 608.323 1303.5L845.312 1432.93C850.85 1435.95 857.387 1436.57 863.392 1434.63L1209.01 1323.22C1213.96 1321.63 1218.21 1318.41 1221.09 1314.08L1400.81 1044.38C1405.42 1037.46 1405.93 1028.59 1402.16 1021.18L1291.54 804.089C1287.77 796.681 1280.29 791.887 1271.98 791.55L948.155 778.41C942.965 778.199 937.856 779.752 933.66 782.815L640.377 996.941C635.281 1000.66 631.937 1006.31 631.129 1012.57L596.536 1280.37Z" stroke="url(#paint24_linear_658_6046)" stroke-width="4"/>
<path opacity="0.376812" d="M570.019 1257.91C568.341 1267.2 572.515 1276.58 580.543 1281.55L808.163 1422.51C813.538 1425.84 820.046 1426.81 826.157 1425.2L1173.05 1333.39C1178.09 1332.06 1182.53 1329.05 1185.64 1324.86L1376.6 1067.33C1381.54 1060.67 1382.51 1051.86 1379.13 1044.28L1280.71 823.211C1277.33 815.632 1270.14 810.457 1261.88 809.67L942.721 779.258C937.528 778.763 932.32 780.049 927.953 782.904L627.617 979.267C622.326 982.727 618.692 988.211 617.569 994.433L570.019 1257.91Z" stroke="url(#paint25_linear_658_6046)" stroke-width="4"/>
<path opacity="0.391304" d="M544.798 1235.48C542.667 1244.64 546.327 1254.17 554.04 1259.55L771.74 1411.43C776.935 1415.06 783.394 1416.38 789.595 1415.09L1136.66 1342.72C1141.79 1341.65 1146.4 1338.86 1149.73 1334.81L1351.16 1089.89C1356.42 1083.5 1357.84 1074.77 1354.87 1067.04L1268.75 842.682C1265.78 834.953 1258.89 829.414 1250.7 828.181L937.123 780.952C931.941 780.172 926.648 781.184 922.121 783.822L615.777 962.276C610.304 965.464 606.388 970.768 604.952 976.937L544.798 1235.48Z" stroke="url(#paint26_linear_658_6046)" stroke-width="4"/>
<path opacity="0.405797" d="M520.859 1213.14C518.283 1222.15 521.424 1231.81 528.8 1237.58L736.068 1399.73C741.067 1403.64 747.459 1405.31 753.732 1404.35L1099.9 1351.18C1105.1 1350.38 1109.88 1347.82 1113.42 1343.93L1324.53 1112C1330.09 1105.89 1331.95 1097.27 1329.4 1089.41L1255.65 862.435C1253.1 854.578 1246.52 848.693 1238.43 847.019L931.316 783.476C926.161 782.409 920.797 783.143 916.118 785.555L604.809 946.013C599.168 948.921 594.979 954.03 593.233 960.132L520.859 1213.14Z" stroke="url(#paint27_linear_658_6046)" stroke-width="4"/>
<path opacity="0.42029" d="M498.18 1190.98C495.171 1199.8 497.789 1209.57 504.808 1215.71L701.174 1387.46C705.96 1391.64 712.266 1393.66 718.594 1393.03L1062.82 1358.76C1068.08 1358.24 1073 1355.92 1076.75 1352.19L1296.75 1133.59C1302.6 1127.78 1304.89 1119.29 1302.76 1111.33L1241.42 882.404C1239.28 874.442 1233.05 868.23 1225.08 866.122L925.259 786.811C920.147 785.459 914.725 785.909 909.907 788.086L594.666 930.522C588.871 933.141 584.419 938.041 582.366 944.06L498.18 1190.98Z" stroke="url(#paint28_linear_658_6046)" stroke-width="4"/>
<path opacity="0.434783" d="M476.739 1169.05C473.308 1177.68 475.4 1187.52 482.044 1194.01L667.078 1374.65C671.637 1379.1 677.839 1381.46 684.203 1381.17L1025.46 1365.45C1030.77 1365.21 1035.83 1363.13 1039.78 1359.58L1267.86 1154.61C1273.97 1149.11 1276.69 1140.76 1274.98 1132.72L1226.05 902.525C1224.34 894.48 1218.46 887.96 1210.64 885.426L918.91 790.937C913.857 789.3 908.392 789.463 903.445 791.398L585.295 915.844C579.362 918.165 574.657 922.843 572.302 928.764L476.739 1169.05Z" stroke="url(#paint29_linear_658_6046)" stroke-width="4"/>
<path opacity="0.449275" d="M456.507 1147.43C452.667 1155.84 454.233 1165.73 460.483 1172.54L633.8 1361.37C638.117 1366.07 644.195 1368.77 650.579 1368.82L987.888 1371.24C993.225 1371.28 998.409 1369.46 1002.55 1366.1L1237.89 1174.99C1244.26 1169.81 1247.39 1161.64 1246.11 1153.53L1209.55 922.732C1208.27 914.628 1202.77 907.821 1195.11 904.869L912.231 795.833C907.251 793.914 901.758 793.786 896.694 795.472L576.645 902.015C570.587 904.031 565.641 908.475 562.988 914.282L456.507 1147.43Z" stroke="url(#paint30_linear_658_6046)" stroke-width="4"/>
<path opacity="0.463768" d="M437.454 1126.18C433.219 1134.35 434.26 1144.26 440.101 1151.37L601.356 1347.66C605.417 1352.6 611.353 1355.63 617.739 1356.02L950.142 1376.13C955.495 1376.46 960.794 1374.9 965.12 1371.73L1206.91 1194.67C1213.51 1189.84 1217.05 1181.85 1216.19 1173.71L1191.94 942.963C1191.08 934.821 1185.96 927.748 1178.5 924.391L905.184 801.474C900.293 799.274 894.787 798.853 889.618 800.283L568.661 889.068C562.495 890.774 557.318 894.97 554.374 900.65L437.454 1126.18Z" stroke="url(#paint31_linear_658_6046)" stroke-width="4"/>
<path opacity="0.478261" d="M419.545 1105.36C414.93 1113.27 415.448 1123.17 420.865 1130.56L569.76 1333.57C573.552 1338.74 579.328 1342.09 585.697 1342.82L912.279 1380.11C917.633 1380.72 923.032 1379.43 927.534 1376.47L1174.95 1213.62C1181.77 1209.13 1185.7 1201.36 1185.27 1193.21L1173.22 963.155C1172.79 955 1168.07 947.682 1160.81 943.93L897.733 807.834C892.946 805.358 887.442 804.641 882.181 805.809L561.287 877.035C555.029 878.424 549.634 882.362 546.404 887.899L419.545 1105.36Z" stroke="url(#paint32_linear_658_6046)" stroke-width="4"/>
<path opacity="0.492754" d="M402.742 1085.04C397.762 1092.68 397.762 1102.53 402.742 1110.17L539.022 1319.15C542.531 1324.53 548.13 1328.2 554.464 1329.27L874.348 1383.18C879.688 1384.08 885.175 1383.07 889.842 1380.32L1142.07 1231.78C1149.09 1227.64 1153.4 1220.11 1153.4 1211.96L1153.4 983.247C1153.4 975.101 1149.09 967.563 1142.07 963.429L889.842 814.886C885.175 812.138 879.688 811.125 874.348 812.025L554.464 865.942C548.13 867.01 542.531 870.678 539.022 876.059L402.742 1085.04Z" stroke="url(#paint33_linear_658_6046)" stroke-width="4"/>
<path opacity="0.507246" d="M387.004 1065.27C381.677 1072.61 381.164 1082.4 385.694 1090.26L509.149 1304.45C512.363 1310.03 517.768 1314 524.05 1315.41L836.401 1385.35C841.713 1386.54 847.274 1385.81 852.096 1383.28L1108.33 1249.1C1115.53 1245.33 1120.2 1238.04 1120.63 1229.93L1132.51 1003.18C1132.94 995.066 1129.05 987.33 1122.29 982.828L881.48 822.6C876.949 819.585 871.494 818.274 866.087 818.902L548.136 855.812C541.742 856.555 535.951 859.943 532.171 865.154L387.004 1065.27Z" stroke="url(#paint34_linear_658_6046)" stroke-width="4"/>
<path opacity="0.521739" d="M372.288 1046.1C366.631 1053.13 365.613 1062.83 369.683 1070.88L480.146 1289.52C483.055 1295.28 488.249 1299.55 494.46 1301.29L798.488 1386.62C803.755 1388.1 809.378 1387.65 814.345 1385.36L1073.78 1265.55C1081.14 1262.15 1086.17 1255.13 1087.01 1247.07L1110.58 1022.9C1111.42 1014.84 1107.97 1006.93 1101.48 1002.07L872.616 830.946C868.234 827.669 862.828 826.062 857.368 826.413L542.242 846.666C535.805 847.08 529.837 850.178 525.794 855.206L372.288 1046.1Z" stroke="url(#paint35_linear_658_6046)" stroke-width="4"/>
<path opacity="0.536232" d="M358.547 1027.58C352.578 1034.29 351.062 1043.87 354.665 1052.09L452.015 1274.41C454.608 1280.33 459.574 1284.89 465.696 1286.96L760.657 1387C765.866 1388.76 771.535 1388.61 776.637 1386.55L1038.48 1281.09C1045.98 1278.07 1051.34 1271.33 1052.61 1263.35L1087.61 1042.34C1088.88 1034.36 1085.86 1026.3 1079.66 1021.11L863.22 839.891C859.003 836.36 853.66 834.457 848.16 834.528L536.722 838.52C530.258 838.603 524.127 841.402 519.831 846.233L358.547 1027.58Z" stroke="url(#paint36_linear_658_6046)" stroke-width="4"/>
<path opacity="0.550725" d="M345.732 1009.77C339.47 1016.15 337.467 1025.57 340.595 1033.94L424.755 1259.16C427.023 1265.23 431.745 1270.06 437.761 1272.47L722.959 1386.5C728.094 1388.55 733.796 1388.69 739.022 1386.88L1002.5 1295.68C1010.12 1293.04 1015.8 1286.61 1017.47 1278.72L1063.65 1061.46C1065.33 1053.58 1062.76 1045.39 1056.87 1039.88L853.266 849.402C849.228 845.624 843.964 843.427 838.438 843.214L531.516 831.386C525.042 831.136 518.763 833.629 514.223 838.251L345.732 1009.77Z" stroke="url(#paint37_linear_658_6046)" stroke-width="4"/>
<path opacity="0.565217" d="M333.792 992.707C327.256 998.731 324.778 1007.98 327.425 1016.47L398.363 1243.84C400.297 1250.03 404.761 1255.13 410.653 1257.85L685.442 1385.13C690.487 1387.47 696.208 1387.9 701.545 1386.35L965.888 1309.29C973.605 1307.04 979.588 1300.93 981.668 1293.16L1038.73 1080.2C1040.81 1072.44 1038.69 1064.15 1033.13 1058.35L842.728 859.443C838.883 855.427 833.714 852.939 828.177 852.441L526.563 825.273C520.096 824.691 513.684 826.869 508.91 831.27L333.792 992.707Z" stroke="url(#paint38_linear_658_6046)" stroke-width="4"/>
<path opacity="0.57971" d="M322.672 976.431C315.884 982.094 312.942 991.148 315.105 999.72L372.833 1228.47C374.425 1234.78 378.616 1240.12 384.366 1243.17L648.151 1382.92C653.091 1385.54 658.816 1386.27 664.254 1384.97L928.713 1321.9C936.509 1320.04 942.775 1314.26 945.252 1306.64L1012.87 1098.52C1015.35 1090.9 1013.68 1082.53 1008.47 1076.45L831.584 869.981C827.947 865.735 822.888 862.96 817.352 862.173L521.801 820.188C515.358 819.272 508.829 821.129 503.832 825.298L322.672 976.431Z" stroke="url(#paint39_linear_658_6046)" stroke-width="4"/>
<path opacity="0.594203" d="M312.32 960.98C305.298 966.272 301.908 975.104 303.585 983.735L348.155 1213.12C349.399 1219.52 353.303 1225.09 358.895 1228.45L611.133 1379.88C615.953 1382.77 621.667 1383.8 627.194 1382.77L891.039 1333.49C898.894 1332.02 905.425 1326.59 908.289 1319.13L986.122 1116.36C988.986 1108.9 987.772 1100.49 982.916 1094.14L819.813 880.977C816.397 876.512 811.463 873.453 805.944 872.378L517.17 816.131C510.768 814.884 504.138 816.413 498.929 820.339L312.32 960.98Z" stroke="url(#paint40_linear_658_6046)" stroke-width="4"/>
<path opacity="0.608696" d="M302.676 946.39C295.442 951.301 291.619 959.889 292.809 968.55L324.319 1197.82C325.209 1204.3 328.813 1210.09 334.229 1213.75L574.431 1376.03C579.117 1379.2 584.804 1380.52 590.408 1379.76L852.931 1344.04C860.825 1342.97 867.601 1337.88 870.841 1330.6L958.513 1133.69C961.754 1126.41 960.997 1117.98 956.513 1111.39L807.397 892.395C804.214 887.721 799.421 884.383 793.933 883.019L512.609 813.101C506.265 811.525 499.55 812.722 494.142 816.394L302.676 946.39Z" stroke="url(#paint41_linear_658_6046)" stroke-width="4"/>
<path opacity="0.623188" d="M293.683 932.69C286.259 937.212 282.019 945.533 282.724 954.198L301.311 1182.63C301.842 1189.16 305.133 1195.15 310.358 1199.1L538.088 1371.4C542.624 1374.83 548.271 1376.46 553.939 1375.97L814.453 1353.53C822.366 1352.85 829.367 1348.13 832.973 1341.06L930.088 1150.46C933.693 1143.38 933.393 1134.95 929.293 1128.15L794.319 904.196C791.382 899.324 786.745 895.713 781.302 894.061L508.058 811.095C501.789 809.191 495.006 810.051 489.411 813.46L293.683 932.69Z" stroke="url(#paint42_linear_658_6046)" stroke-width="4"/>
<path opacity="0.637681" d="M285.282 919.906C277.689 924.032 273.051 932.067 273.273 940.706L279.115 1167.57C279.284 1174.14 282.251 1180.32 287.268 1184.55L502.146 1366C506.518 1369.69 512.109 1371.62 517.828 1371.41L775.672 1361.96C783.584 1361.67 790.79 1357.33 794.748 1350.47L900.888 1166.63C904.846 1159.78 905 1151.37 901.296 1144.37L780.564 916.342C777.887 911.285 773.42 907.407 768.037 905.467L503.459 810.101C497.281 807.874 490.446 808.395 484.677 811.531L285.282 919.906Z" stroke="url(#paint43_linear_658_6046)" stroke-width="4"/>
<path opacity="0.652174" d="M277.412 908.061C269.672 911.786 264.654 919.514 264.398 928.1L257.712 1152.71C257.516 1159.29 260.149 1165.64 264.943 1170.14L466.643 1359.88C470.837 1363.83 476.357 1366.05 482.114 1366.13L736.653 1369.31C744.543 1369.41 751.933 1365.46 756.23 1358.84L870.958 1182.17C875.255 1175.56 875.86 1167.2 872.561 1160.03L766.122 928.793C763.714 923.563 759.433 919.426 754.123 917.2L498.752 810.11C492.682 807.564 485.813 807.741 479.882 810.596L277.412 908.061Z" stroke="url(#paint44_linear_658_6046)" stroke-width="4"/>
<path opacity="0.666667" d="M270.011 897.174C262.147 900.494 256.768 907.897 256.04 916.403L237.082 1138.07C236.52 1144.64 238.808 1151.14 243.364 1155.91L431.617 1353.06C435.618 1357.25 441.053 1359.77 446.835 1360.13L697.461 1375.59C705.31 1376.07 712.862 1372.51 717.485 1366.15L840.343 1197.05C844.965 1190.69 846.017 1182.41 843.131 1175.09L750.981 941.511C748.854 936.121 744.773 931.733 739.552 929.223L493.881 811.105C487.935 808.246 481.047 808.079 474.969 810.645L270.011 897.174Z" stroke="url(#paint45_linear_658_6046)" stroke-width="4"/>
<path opacity="0.681159" d="M263.019 887.26C255.052 890.171 249.334 897.232 248.142 905.631L217.204 1123.69C216.275 1130.24 218.209 1136.87 222.513 1141.89L397.103 1345.57C400.898 1350 406.232 1352.82 412.027 1353.46L658.162 1380.8C665.95 1381.66 673.644 1378.5 678.575 1372.41L809.091 1211.24C814.023 1205.15 815.514 1196.97 813.049 1189.53L735.134 954.454C733.3 948.92 729.432 944.289 724.314 941.498L488.79 813.069C482.984 809.903 476.096 809.389 469.884 811.659L263.019 887.26Z" stroke="url(#paint46_linear_658_6046)" stroke-width="4"/>
<path opacity="0.695652" d="M256.374 878.33C248.325 880.831 242.29 887.535 240.643 895.8L198.051 1109.62C196.756 1116.12 198.329 1122.87 202.367 1128.12L363.136 1337.44C366.711 1342.1 371.929 1345.21 377.723 1346.14L618.819 1384.94C626.528 1386.18 634.34 1383.42 639.565 1377.62L777.251 1224.7C782.475 1218.9 784.399 1210.84 782.36 1203.31L718.577 967.585C717.044 961.92 713.404 957.056 708.402 953.987L483.424 815.979C477.773 812.513 470.901 811.653 464.571 813.621L256.374 878.33Z" stroke="url(#paint47_linear_658_6046)" stroke-width="4"/>
<path opacity="0.710145" d="M250.013 870.392C241.906 872.483 235.575 878.813 233.484 886.921L179.6 1095.89C177.94 1102.32 179.145 1109.16 182.904 1114.64L329.747 1328.72C333.088 1333.59 338.176 1336.99 343.956 1338.21L579.496 1388.02C587.107 1389.63 595.016 1387.28 600.517 1381.78L744.871 1237.42C750.372 1231.92 752.719 1224.01 751.11 1216.4L701.307 980.863C700.084 975.084 696.685 969.996 691.814 966.654L477.731 819.812C472.251 816.053 465.413 814.848 458.978 816.507L250.013 870.392Z" stroke="url(#paint48_linear_658_6046)" stroke-width="4"/>
<path opacity="0.724638" d="M243.874 863.45C235.73 865.13 229.127 871.076 226.605 878.999L161.82 1082.52C159.799 1088.87 160.63 1095.78 164.097 1101.47L296.963 1319.44C300.059 1324.52 305.001 1328.2 310.753 1329.71L540.254 1390.05C547.749 1392.02 555.733 1390.09 561.493 1384.9L712 1249.38C717.76 1244.2 720.52 1236.46 719.344 1228.8L683.32 994.249C682.417 988.371 679.272 983.07 674.545 979.461L471.659 824.539C466.365 820.497 459.577 818.948 453.053 820.294L243.874 863.45Z" stroke="url(#paint49_linear_658_6046)" stroke-width="4"/>
<path opacity="0.73913" d="M237.897 857.504C229.738 858.775 222.887 864.323 219.947 872.04L144.684 1069.56C142.306 1075.8 142.758 1082.77 145.922 1088.65L264.813 1309.63C267.651 1314.9 272.434 1318.86 278.145 1320.67L501.155 1391.06C508.517 1393.39 516.554 1391.86 522.553 1387L678.692 1260.56C684.691 1255.71 687.853 1248.16 687.111 1240.48L664.62 1007.7C664.044 1001.74 661.165 996.242 656.596 992.37L465.16 830.132C460.066 825.814 453.346 823.924 446.748 824.952L237.897 857.504Z" stroke="url(#paint50_linear_658_6046)" stroke-width="4"/>
<path opacity="0.753623" d="M232.021 852.549C223.868 853.415 216.793 858.556 213.45 866.042L128.16 1057.03C125.431 1063.14 125.5 1070.14 128.349 1076.2L233.322 1299.34C235.889 1304.8 240.497 1309.03 246.154 1311.12L462.259 1391.06C469.47 1393.73 477.538 1392.62 483.758 1388.1L644.995 1270.95C651.215 1266.43 654.766 1259.1 654.457 1251.42L645.209 1021.19C644.966 1015.16 642.367 1009.47 637.97 1005.34L458.188 836.555C453.307 831.973 446.672 829.745 440.015 830.452L232.021 852.549Z" stroke="url(#paint51_linear_658_6046)" stroke-width="4"/>
<path opacity="0.768116" d="M226.186 848.579C218.06 849.044 210.786 853.768 207.056 861.002L112.217 1044.96C109.142 1050.92 108.825 1057.93 111.351 1064.15L202.51 1288.6C204.796 1294.23 209.216 1298.73 214.805 1301.11L423.623 1390.07C430.667 1393.08 438.743 1392.37 445.164 1388.2L610.961 1280.53C617.383 1276.36 621.308 1269.27 621.432 1261.62L625.092 1034.67C625.19 1028.59 622.881 1022.73 618.669 1018.35L450.697 843.776C446.044 838.94 439.51 836.377 432.81 836.76L226.186 848.579Z" stroke="url(#paint52_linear_658_6046)" stroke-width="4"/>
<path opacity="0.782609" d="M220.332 845.584C212.255 845.652 204.806 849.953 200.708 856.914L96.8212 1033.37C93.4076 1039.16 92.704 1046.17 94.8958 1052.53L172.399 1277.47C174.392 1283.26 178.61 1288.01 184.118 1290.68L385.302 1388.13C392.164 1391.45 400.226 1391.16 406.829 1387.35L576.642 1289.31C583.245 1285.49 587.529 1278.66 588.082 1271.05L604.278 1048.1C604.721 1041.99 602.714 1035.97 598.699 1031.35L442.645 851.755C438.232 846.676 431.816 843.784 425.088 843.842L220.332 845.584Z" stroke="url(#paint53_linear_658_6046)" stroke-width="4"/>
<path opacity="0.797101" d="M214.404 843.548C206.395 843.227 198.797 847.098 194.349 853.766L81.9383 1022.28C78.1951 1027.9 77.104 1034.87 78.9537 1041.35L143.005 1265.98C144.696 1271.91 148.697 1276.91 154.11 1279.86L347.351 1385.26C354.014 1388.89 362.042 1389 368.805 1385.56L542.088 1297.26C548.851 1293.82 553.479 1287.26 554.455 1279.73L582.775 1061.45C583.568 1055.33 581.873 1049.15 578.069 1044.3L433.994 860.452C429.833 855.143 423.551 851.928 416.811 851.658L214.404 843.548Z" stroke="url(#paint54_linear_658_6046)" stroke-width="4"/>
<path opacity="0.811594" d="M208.343 842.454C200.423 841.751 192.701 845.189 187.924 851.545L67.5328 1011.73C63.4696 1017.13 61.9916 1024.06 63.4918 1030.65L114.342 1254.17C115.72 1260.23 119.492 1265.47 124.798 1268.71L309.819 1381.48C316.271 1385.42 324.243 1385.93 331.145 1382.86L507.351 1304.41C514.253 1301.33 519.206 1295.06 520.6 1287.64L560.593 1074.68C561.74 1068.57 560.367 1062.26 556.787 1057.18L424.705 869.827C420.808 864.3 414.676 860.768 407.94 860.17L208.343 842.454Z" stroke="url(#paint55_linear_658_6046)" stroke-width="4"/>
<path opacity="0.826087" d="M202.098 842.282C194.285 841.205 186.465 844.207 181.379 850.235L53.5702 1001.72C49.1979 1006.9 47.335 1013.75 48.479 1020.43L86.4239 1242.09C87.4807 1248.26 91.0095 1253.74 96.195 1257.25L272.759 1376.85C278.985 1381.07 286.88 1381.98 293.9 1379.28L472.48 1310.73C479.501 1308.04 484.76 1302.08 486.565 1294.78L537.748 1087.75C539.252 1081.67 538.21 1075.24 534.865 1069.95L414.745 879.835C411.124 874.103 405.157 870.261 398.441 869.335L202.098 842.282Z" stroke="url(#paint56_linear_658_6046)" stroke-width="4"/>
<path opacity="0.84058" d="M195.613 843.007C187.926 841.567 180.034 844.131 174.662 849.815L40.0127 992.27C35.3431 997.21 33.0982 1003.96 33.8805 1010.72L59.259 1229.78C59.9857 1236.05 63.2588 1241.75 68.311 1245.54L236.214 1371.4C242.202 1375.89 249.999 1377.18 257.117 1374.87L437.525 1316.25C444.642 1313.94 450.189 1308.31 452.395 1301.16L514.253 1100.64C516.115 1094.61 515.414 1088.08 512.315 1082.58L404.083 890.43C400.746 884.507 394.961 880.363 388.279 879.111L195.613 843.007Z" stroke="url(#paint57_linear_658_6046)" stroke-width="4"/>
<path opacity="0.855072" d="M188.839 844.604C181.296 842.81 173.357 844.938 167.722 850.263L26.8241 983.397C21.8701 988.078 19.2474 994.715 19.6633 1001.52L32.8551 1217.29C33.2435 1223.65 36.2486 1229.56 41.1548 1233.61L200.229 1365.16C205.967 1369.91 213.647 1371.58 220.839 1369.65L402.533 1320.97C409.725 1319.04 415.54 1313.75 418.136 1306.77L490.125 1113.31C492.346 1107.35 491.993 1100.73 489.153 1095.03L392.689 901.566C389.648 895.466 384.058 891.03 377.427 889.453L188.839 844.604Z" stroke="url(#paint58_linear_658_6046)" stroke-width="4"/>
<path opacity="0.869565" d="M181.728 847.042C174.346 844.907 166.386 846.599 160.511 851.552L13.9671 975.11C8.74271 979.515 5.7476 986.015 5.7935 992.849L7.21642 1204.67C7.25954 1211.09 9.9844 1217.2 14.7321 1221.52L164.845 1358.18C170.322 1363.17 177.865 1365.21 185.11 1363.67L367.554 1324.89C374.799 1323.35 380.859 1318.42 383.835 1311.64L465.382 1125.73C467.962 1119.85 467.966 1113.16 465.394 1107.28L380.54 913.194C377.802 906.932 372.422 902.213 365.858 900.313L181.728 847.042Z" stroke="url(#paint59_linear_658_6046)" stroke-width="4"/>
<path opacity="0.884058" d="M174.234 850.29C167.029 847.825 159.072 849.085 152.982 853.656L1.40446 967.419C-4.07552 971.532 -7.43645 977.874 -7.76313 984.718L-17.6549 1191.94C-17.9637 1198.41 -15.5309 1204.71 -10.954 1209.3L130.099 1350.51C135.306 1355.72 142.694 1358.13 149.97 1356.98L332.632 1328.04C339.909 1326.89 346.193 1322.32 349.533 1315.76L440.044 1137.86C442.981 1132.09 443.349 1125.35 441.056 1119.29L367.612 925.265C365.186 918.857 360.03 913.864 353.547 911.646L174.234 850.29Z" stroke="url(#paint60_linear_658_6046)" stroke-width="4"/>
<path opacity="0.898551" d="M166.312 854.312C159.3 851.531 151.37 852.364 145.09 856.543L-10.9018 960.331C-16.6214 964.137 -20.3405 970.3 -21.0413 977.134L-41.7601 1179.17C-42.4267 1185.68 -40.297 1192.15 -35.9031 1196.99L96.0269 1342.19C100.953 1347.62 108.168 1350.37 115.454 1349.6L297.813 1330.43C305.099 1329.67 311.584 1325.48 315.275 1319.15L414.132 1149.69C417.425 1144.04 418.161 1137.27 416.158 1131.05L353.885 937.728C351.779 931.189 346.86 925.934 340.474 923.4L166.312 854.312Z" stroke="url(#paint61_linear_658_6046)" stroke-width="4"/>
<path opacity="0.913043" d="M157.922 859.072C151.118 855.988 143.24 856.401 136.795 860.179L-22.9882 953.851C-28.9306 957.334 -32.9988 963.298 -34.0742 970.102L-65.1013 1166.4C-66.1307 1172.91 -64.3153 1179.55 -60.116 1184.64L62.6603 1333.27C67.2988 1338.89 74.3231 1341.98 81.5967 1341.6L263.139 1332.08C270.413 1331.7 277.076 1327.9 281.102 1321.83L387.669 1161.17C391.314 1155.68 392.425 1148.88 390.721 1142.51L339.345 950.532C337.564 943.877 332.895 938.372 326.621 935.528L157.922 859.072Z" stroke="url(#paint62_linear_658_6046)" stroke-width="4"/>
<path opacity="0.927536" d="M149.024 864.53C142.442 861.159 134.639 861.159 128.057 864.53L-34.8925 947.98C-41.0399 951.128 -45.4471 956.872 -46.8965 963.625L-87.6847 1153.66C-89.0814 1160.17 -87.5906 1166.96 -83.5976 1172.29L30.0271 1323.81C34.3707 1329.6 41.1881 1333.01 48.4279 1333.01L228.653 1333.01C235.893 1333.01 242.71 1329.6 247.054 1323.81L360.679 1172.29C364.672 1166.96 366.162 1160.17 364.766 1153.66L323.978 963.625C322.528 956.872 318.121 951.128 311.974 947.98L149.024 864.53Z" stroke="url(#paint63_linear_658_6046)" stroke-width="4"/>
<path opacity="0.942029" d="M139.585 870.646C133.236 867.003 125.533 866.599 118.838 869.559L-46.6511 942.718C-52.9848 945.518 -57.7198 951.023 -59.5414 957.705L-109.518 1141.01C-111.286 1147.49 -110.13 1154.42 -106.354 1159.98L-1.84697 1313.84C2.19563 1319.79 8.79044 1323.51 15.9754 1323.89L194.394 1333.24C201.579 1333.61 208.526 1330.61 213.169 1325.11L333.186 1183.02C337.522 1177.88 339.396 1171.11 338.316 1164.48L307.774 976.955C306.66 970.12 302.527 964.15 296.52 960.703L139.585 870.646Z" stroke="url(#paint64_linear_658_6046)" stroke-width="4"/>
<path opacity="0.956522" d="M129.571 877.376C123.468 873.477 115.885 872.68 109.105 875.225L-58.3003 938.065C-64.801 940.505 -69.8514 945.752 -72.0423 952.341L-130.612 1128.48C-132.753 1134.92 -131.941 1141.97 -128.394 1147.76L-32.9404 1303.43C-29.2038 1309.52 -22.8462 1313.53 -15.7371 1314.28L160.4 1332.79C167.509 1333.54 174.561 1330.94 179.483 1325.76L305.217 1193.33C309.89 1188.41 312.15 1181.68 311.395 1174.93L290.726 990.469C289.953 983.569 286.104 977.387 280.253 973.648L129.571 877.376Z" stroke="url(#paint65_linear_658_6046)" stroke-width="4"/>
<path opacity="0.971014" d="M118.952 884.676C113.106 880.538 105.665 879.359 98.8256 881.489L-69.8759 934.016C-76.5234 936.085 -81.8756 941.055 -84.432 947.531L-150.979 1116.11C-153.495 1122.49 -153.037 1129.65 -149.729 1135.66L-63.235 1292.63C-59.8083 1298.85 -53.7016 1303.13 -46.6887 1304.24L126.706 1331.71C133.719 1332.82 140.851 1330.63 146.032 1325.77L276.8 1203.21C281.801 1198.53 284.451 1191.85 284.027 1185.01L272.832 1004.12C272.402 997.167 268.848 990.787 263.165 986.764L118.952 884.676Z" stroke="url(#paint66_linear_658_6046)" stroke-width="4"/>
<path opacity="0.985507" d="M107.702 892.501C102.122 888.14 94.8438 886.593 87.9723 888.307L-81.4127 930.564C-88.186 932.254 -93.8253 936.928 -96.7419 943.27L-170.634 1103.95C-173.527 1110.24 -173.431 1117.51 -170.373 1123.72L-92.7154 1281.49C-89.6016 1287.81 -83.7584 1292.36 -76.8618 1293.83L93.346 1330.01C100.243 1331.47 107.431 1329.69 112.848 1325.18L247.961 1212.64C253.283 1208.21 256.324 1201.61 256.24 1194.69L254.091 1017.84C254.007 1010.86 250.756 1004.3 245.256 999.999L107.702 892.501Z" stroke="url(#paint67_linear_658_6046)" stroke-width="4"/>
<path d="M95.797 900.803C90.4916 896.237 83.3959 894.336 76.5185 895.637L-92.9454 927.702C-99.8228 929.003 -105.733 933.365 -109.004 939.553L-189.594 1092.04C-192.865 1098.23 -193.139 1105.57 -190.34 1111.98L-121.371 1270.06C-118.572 1276.48 -113.004 1281.27 -106.243 1283.08L60.3511 1327.72C67.112 1329.53 74.33 1328.17 79.9618 1324.01L218.731 1221.59C224.363 1217.44 227.796 1210.94 228.057 1203.95L234.506 1031.6C234.768 1024.6 231.83 1017.87 226.525 1013.3L95.797 900.803Z" stroke="url(#paint68_linear_658_6046)" stroke-width="4"/>
<defs>
<linearGradient id="paint0_linear_658_6046" x1="1602.91" y1="1645.24" x2="1419.03" y2="484.222" gradientUnits="userSpaceOnUse">
<stop stop-color="#C901C4"/>
<stop offset="0.479167" stop-color="#6D28D9"/>
<stop offset="1" stop-color="#625CF9"/>
</linearGradient>
<linearGradient id="paint1_linear_658_6046" x1="1551.15" y1="1644.5" x2="1429.36" y2="485.766" gradientUnits="userSpaceOnUse">
<stop stop-color="#C901C4"/>
<stop offset="0.479167" stop-color="#6D28D9"/>
<stop offset="1" stop-color="#625CF9"/>
</linearGradient>
<linearGradient id="paint2_linear_658_6046" x1="1499.74" y1="1642.17" x2="1439.31" y2="489.015" gradientUnits="userSpaceOnUse">
<stop stop-color="#C901C4"/>
<stop offset="0.479167" stop-color="#6D28D9"/>
<stop offset="1" stop-color="#625CF9"/>
</linearGradient>
<linearGradient id="paint3_linear_658_6046" x1="1448.78" y1="1638.29" x2="1448.78" y2="493.93" gradientUnits="userSpaceOnUse">
<stop stop-color="#C901C4"/>
<stop offset="0.479167" stop-color="#6D28D9"/>
<stop offset="1" stop-color="#625CF9"/>
</linearGradient>
<linearGradient id="paint4_linear_658_6046" x1="1398.34" y1="1632.9" x2="1457.69" y2="500.471" gradientUnits="userSpaceOnUse">
<stop stop-color="#C901C4"/>
<stop offset="0.479167" stop-color="#6D28D9"/>
<stop offset="1" stop-color="#625CF9"/>
</linearGradient>
<linearGradient id="paint5_linear_658_6046" x1="1348.51" y1="1626.05" x2="1465.95" y2="508.59" gradientUnits="userSpaceOnUse">
<stop stop-color="#C901C4"/>
<stop offset="0.479167" stop-color="#6D28D9"/>
<stop offset="1" stop-color="#625CF9"/>
</linearGradient>
<linearGradient id="paint6_linear_658_6046" x1="1299.34" y1="1617.77" x2="1473.49" y2="518.237" gradientUnits="userSpaceOnUse">
<stop stop-color="#C901C4"/>
<stop offset="0.479167" stop-color="#6D28D9"/>
<stop offset="1" stop-color="#625CF9"/>
</linearGradient>
<linearGradient id="paint7_linear_658_6046" x1="1250.93" y1="1608.12" x2="1480.23" y2="529.358" gradientUnits="userSpaceOnUse">
<stop stop-color="#C901C4"/>
<stop offset="0.479167" stop-color="#6D28D9"/>
<stop offset="1" stop-color="#625CF9"/>
</linearGradient>
<linearGradient id="paint8_linear_658_6046" x1="1203.33" y1="1597.15" x2="1486.08" y2="541.893" gradientUnits="userSpaceOnUse">
<stop stop-color="#C901C4"/>
<stop offset="0.479167" stop-color="#6D28D9"/>
<stop offset="1" stop-color="#625CF9"/>
</linearGradient>
<linearGradient id="paint9_linear_658_6046" x1="1156.61" y1="1584.93" x2="1491" y2="555.781" gradientUnits="userSpaceOnUse">
<stop stop-color="#C901C4"/>
<stop offset="0.479167" stop-color="#6D28D9"/>
<stop offset="1" stop-color="#625CF9"/>
</linearGradient>
<linearGradient id="paint10_linear_658_6046" x1="1110.82" y1="1571.51" x2="1494.9" y2="570.957" gradientUnits="userSpaceOnUse">
<stop stop-color="#C901C4"/>
<stop offset="0.479167" stop-color="#6D28D9"/>
<stop offset="1" stop-color="#625CF9"/>
</linearGradient>
<linearGradient id="paint11_linear_658_6046" x1="1066.04" y1="1556.95" x2="1497.73" y2="587.351" gradientUnits="userSpaceOnUse">
<stop stop-color="#C901C4"/>
<stop offset="0.479167" stop-color="#6D28D9"/>
<stop offset="1" stop-color="#625CF9"/>
</linearGradient>
<linearGradient id="paint12_linear_658_6046" x1="1022.3" y1="1541.33" x2="1499.44" y2="604.894" gradientUnits="userSpaceOnUse">
<stop stop-color="#C901C4"/>
<stop offset="0.479167" stop-color="#6D28D9"/>
<stop offset="1" stop-color="#625CF9"/>
</linearGradient>
<linearGradient id="paint13_linear_658_6046" x1="979.658" y1="1524.71" x2="1499.96" y2="623.511" gradientUnits="userSpaceOnUse">
<stop stop-color="#C901C4"/>
<stop offset="0.479167" stop-color="#6D28D9"/>
<stop offset="1" stop-color="#625CF9"/>
</linearGradient>
<linearGradient id="paint14_linear_658_6046" x1="938.158" y1="1507.16" x2="1499.27" y2="643.127" gradientUnits="userSpaceOnUse">
<stop stop-color="#C901C4"/>
<stop offset="0.479167" stop-color="#6D28D9"/>
<stop offset="1" stop-color="#625CF9"/>
</linearGradient>
<linearGradient id="paint15_linear_658_6046" x1="897.837" y1="1488.75" x2="1497.3" y2="663.663" gradientUnits="userSpaceOnUse">
<stop stop-color="#C901C4"/>
<stop offset="0.479167" stop-color="#6D28D9"/>
<stop offset="1" stop-color="#625CF9"/>
</linearGradient>
<linearGradient id="paint16_linear_658_6046" x1="858.732" y1="1469.56" x2="1494.02" y2="685.04" gradientUnits="userSpaceOnUse">
<stop stop-color="#C901C4"/>
<stop offset="0.479167" stop-color="#6D28D9"/>
<stop offset="1" stop-color="#625CF9"/>
</linearGradient>
<linearGradient id="paint17_linear_658_6046" x1="820.873" y1="1449.66" x2="1489.41" y2="707.177" gradientUnits="userSpaceOnUse">
<stop stop-color="#C901C4"/>
<stop offset="0.479167" stop-color="#6D28D9"/>
<stop offset="1" stop-color="#625CF9"/>
</linearGradient>
<linearGradient id="paint18_linear_658_6046" x1="784.285" y1="1429.13" x2="1483.43" y2="729.992" gradientUnits="userSpaceOnUse">
<stop stop-color="#C901C4"/>
<stop offset="0.479167" stop-color="#6D28D9"/>
<stop offset="1" stop-color="#625CF9"/>
</linearGradient>
<linearGradient id="paint19_linear_658_6046" x1="748.991" y1="1408.05" x2="1476.06" y2="753.401" gradientUnits="userSpaceOnUse">
<stop stop-color="#C901C4"/>
<stop offset="0.479167" stop-color="#6D28D9"/>
<stop offset="1" stop-color="#625CF9"/>
</linearGradient>
<linearGradient id="paint20_linear_658_6046" x1="715.009" y1="1386.5" x2="1467.28" y2="777.323" gradientUnits="userSpaceOnUse">
<stop stop-color="#C901C4"/>
<stop offset="0.479167" stop-color="#6D28D9"/>
<stop offset="1" stop-color="#625CF9"/>
</linearGradient>
<linearGradient id="paint21_linear_658_6046" x1="682.348" y1="1364.54" x2="1457.07" y2="801.672" gradientUnits="userSpaceOnUse">
<stop stop-color="#C901C4"/>
<stop offset="0.479167" stop-color="#6D28D9"/>
<stop offset="1" stop-color="#625CF9"/>
</linearGradient>
<linearGradient id="paint22_linear_658_6046" x1="651.019" y1="1342.27" x2="1445.44" y2="826.365" gradientUnits="userSpaceOnUse">
<stop stop-color="#C901C4"/>
<stop offset="0.479167" stop-color="#6D28D9"/>
<stop offset="1" stop-color="#625CF9"/>
</linearGradient>
<linearGradient id="paint23_linear_658_6046" x1="621.024" y1="1319.75" x2="1432.37" y2="851.319" gradientUnits="userSpaceOnUse">
<stop stop-color="#C901C4"/>
<stop offset="0.479167" stop-color="#6D28D9"/>
<stop offset="1" stop-color="#625CF9"/>
</linearGradient>
<linearGradient id="paint24_linear_658_6046" x1="592.363" y1="1297.07" x2="1417.87" y2="876.451" gradientUnits="userSpaceOnUse">
<stop stop-color="#C901C4"/>
<stop offset="0.479167" stop-color="#6D28D9"/>
<stop offset="1" stop-color="#625CF9"/>
</linearGradient>
<linearGradient id="paint25_linear_658_6046" x1="565.03" y1="1274.29" x2="1401.94" y2="901.679" gradientUnits="userSpaceOnUse">
<stop stop-color="#C901C4"/>
<stop offset="0.479167" stop-color="#6D28D9"/>
<stop offset="1" stop-color="#625CF9"/>
</linearGradient>
<linearGradient id="paint26_linear_658_6046" x1="539.015" y1="1251.51" x2="1384.59" y2="926.922" gradientUnits="userSpaceOnUse">
<stop stop-color="#C901C4"/>
<stop offset="0.479167" stop-color="#6D28D9"/>
<stop offset="1" stop-color="#625CF9"/>
</linearGradient>
<linearGradient id="paint27_linear_658_6046" x1="514.304" y1="1228.78" x2="1365.84" y2="952.1" gradientUnits="userSpaceOnUse">
<stop stop-color="#C901C4"/>
<stop offset="0.479167" stop-color="#6D28D9"/>
<stop offset="1" stop-color="#625CF9"/>
</linearGradient>
<linearGradient id="paint28_linear_658_6046" x1="490.881" y1="1206.19" x2="1345.71" y2="977.137" gradientUnits="userSpaceOnUse">
<stop stop-color="#C901C4"/>
<stop offset="0.479167" stop-color="#6D28D9"/>
<stop offset="1" stop-color="#625CF9"/>
</linearGradient>
<linearGradient id="paint29_linear_658_6046" x1="468.722" y1="1183.8" x2="1324.22" y2="1001.95" gradientUnits="userSpaceOnUse">
<stop stop-color="#C901C4"/>
<stop offset="0.479167" stop-color="#6D28D9"/>
<stop offset="1" stop-color="#625CF9"/>
</linearGradient>
<linearGradient id="paint30_linear_658_6046" x1="447.801" y1="1161.68" x2="1301.4" y2="1026.48" gradientUnits="userSpaceOnUse">
<stop stop-color="#C901C4"/>
<stop offset="0.479167" stop-color="#6D28D9"/>
<stop offset="1" stop-color="#625CF9"/>
</linearGradient>
<linearGradient id="paint31_linear_658_6046" x1="428.09" y1="1139.9" x2="1277.27" y2="1050.64" gradientUnits="userSpaceOnUse">
<stop stop-color="#C901C4"/>
<stop offset="0.479167" stop-color="#6D28D9"/>
<stop offset="1" stop-color="#625CF9"/>
</linearGradient>
<linearGradient id="paint32_linear_658_6046" x1="409.556" y1="1118.52" x2="1251.89" y2="1074.37" gradientUnits="userSpaceOnUse">
<stop stop-color="#C901C4"/>
<stop offset="0.479167" stop-color="#6D28D9"/>
<stop offset="1" stop-color="#625CF9"/>
</linearGradient>
<linearGradient id="paint33_linear_658_6046" x1="392.161" y1="1097.6" x2="1225.27" y2="1097.6" gradientUnits="userSpaceOnUse">
<stop stop-color="#C901C4"/>
<stop offset="0.479167" stop-color="#6D28D9"/>
<stop offset="1" stop-color="#625CF9"/>
</linearGradient>
<linearGradient id="paint34_linear_658_6046" x1="375.867" y1="1077.21" x2="1197.48" y2="1120.27" gradientUnits="userSpaceOnUse">
<stop stop-color="#C901C4"/>
<stop offset="0.479167" stop-color="#6D28D9"/>
<stop offset="1" stop-color="#625CF9"/>
</linearGradient>
<linearGradient id="paint35_linear_658_6046" x1="360.631" y1="1057.4" x2="1168.54" y2="1142.32" gradientUnits="userSpaceOnUse">
<stop stop-color="#C901C4"/>
<stop offset="0.479167" stop-color="#6D28D9"/>
<stop offset="1" stop-color="#625CF9"/>
</linearGradient>
<linearGradient id="paint36_linear_658_6046" x1="346.407" y1="1038.22" x2="1138.52" y2="1163.68" gradientUnits="userSpaceOnUse">
<stop stop-color="#C901C4"/>
<stop offset="0.479167" stop-color="#6D28D9"/>
<stop offset="1" stop-color="#625CF9"/>
</linearGradient>
<linearGradient id="paint37_linear_658_6046" x1="333.148" y1="1019.73" x2="1107.46" y2="1184.31" gradientUnits="userSpaceOnUse">
<stop stop-color="#C901C4"/>
<stop offset="0.479167" stop-color="#6D28D9"/>
<stop offset="1" stop-color="#625CF9"/>
</linearGradient>
<linearGradient id="paint38_linear_658_6046" x1="320.803" y1="1001.96" x2="1075.42" y2="1204.16" gradientUnits="userSpaceOnUse">
<stop stop-color="#C901C4"/>
<stop offset="0.479167" stop-color="#6D28D9"/>
<stop offset="1" stop-color="#625CF9"/>
</linearGradient>
<linearGradient id="paint39_linear_658_6046" x1="309.32" y1="984.966" x2="1042.45" y2="1223.18" gradientUnits="userSpaceOnUse">
<stop stop-color="#C901C4"/>
<stop offset="0.479167" stop-color="#6D28D9"/>
<stop offset="1" stop-color="#625CF9"/>
</linearGradient>
<linearGradient id="paint40_linear_658_6046" x1="298.642" y1="968.784" x2="1008.62" y2="1241.32" gradientUnits="userSpaceOnUse">
<stop stop-color="#C901C4"/>
<stop offset="0.479167" stop-color="#6D28D9"/>
<stop offset="1" stop-color="#625CF9"/>
</linearGradient>
<linearGradient id="paint41_linear_658_6046" x1="288.716" y1="953.451" x2="973.977" y2="1258.55" gradientUnits="userSpaceOnUse">
<stop stop-color="#C901C4"/>
<stop offset="0.479167" stop-color="#6D28D9"/>
<stop offset="1" stop-color="#625CF9"/>
</linearGradient>
<linearGradient id="paint42_linear_658_6046" x1="279.481" y1="938.999" x2="938.592" y2="1274.83" gradientUnits="userSpaceOnUse">
<stop stop-color="#C901C4"/>
<stop offset="0.479167" stop-color="#6D28D9"/>
<stop offset="1" stop-color="#625CF9"/>
</linearGradient>
<linearGradient id="paint43_linear_658_6046" x1="270.88" y1="925.457" x2="902.526" y2="1290.14" gradientUnits="userSpaceOnUse">
<stop stop-color="#C901C4"/>
<stop offset="0.479167" stop-color="#6D28D9"/>
<stop offset="1" stop-color="#625CF9"/>
</linearGradient>
<linearGradient id="paint44_linear_658_6046" x1="262.851" y1="912.85" x2="865.845" y2="1304.44" gradientUnits="userSpaceOnUse">
<stop stop-color="#C901C4"/>
<stop offset="0.479167" stop-color="#6D28D9"/>
<stop offset="1" stop-color="#625CF9"/>
</linearGradient>
<linearGradient id="paint45_linear_658_6046" x1="255.333" y1="901.199" x2="828.613" y2="1317.71" gradientUnits="userSpaceOnUse">
<stop stop-color="#C901C4"/>
<stop offset="0.479167" stop-color="#6D28D9"/>
<stop offset="1" stop-color="#625CF9"/>
</linearGradient>
<linearGradient id="paint46_linear_658_6046" x1="248.266" y1="890.522" x2="790.898" y2="1329.94" gradientUnits="userSpaceOnUse">
<stop stop-color="#C901C4"/>
<stop offset="0.479167" stop-color="#6D28D9"/>
<stop offset="1" stop-color="#625CF9"/>
</linearGradient>
<linearGradient id="paint47_linear_658_6046" x1="241.586" y1="880.832" x2="752.767" y2="1341.1" gradientUnits="userSpaceOnUse">
<stop stop-color="#C901C4"/>
<stop offset="0.479167" stop-color="#6D28D9"/>
<stop offset="1" stop-color="#625CF9"/>
</linearGradient>
<linearGradient id="paint48_linear_658_6046" x1="235.231" y1="872.139" x2="714.287" y2="1351.19" gradientUnits="userSpaceOnUse">
<stop stop-color="#C901C4"/>
<stop offset="0.479167" stop-color="#6D28D9"/>
<stop offset="1" stop-color="#625CF9"/>
</linearGradient>
<linearGradient id="paint49_linear_658_6046" x1="229.138" y1="864.448" x2="675.523" y2="1360.21" gradientUnits="userSpaceOnUse">
<stop stop-color="#C901C4"/>
<stop offset="0.479167" stop-color="#6D28D9"/>
<stop offset="1" stop-color="#625CF9"/>
</linearGradient>
<linearGradient id="paint50_linear_658_6046" x1="223.246" y1="857.763" x2="636.545" y2="1368.14" gradientUnits="userSpaceOnUse">
<stop stop-color="#C901C4"/>
<stop offset="0.479167" stop-color="#6D28D9"/>
<stop offset="1" stop-color="#625CF9"/>
</linearGradient>
<linearGradient id="paint51_linear_658_6046" x1="217.494" y1="852.081" x2="597.416" y2="1375" gradientUnits="userSpaceOnUse">
<stop stop-color="#C901C4"/>
<stop offset="0.479167" stop-color="#6D28D9"/>
<stop offset="1" stop-color="#625CF9"/>
</linearGradient>
<linearGradient id="paint52_linear_658_6046" x1="211.82" y1="847.398" x2="558.203" y2="1380.78" gradientUnits="userSpaceOnUse">
<stop stop-color="#C901C4"/>
<stop offset="0.479167" stop-color="#6D28D9"/>
<stop offset="1" stop-color="#625CF9"/>
</linearGradient>
<linearGradient id="paint53_linear_658_6046" x1="206.164" y1="843.704" x2="518.971" y2="1385.5" gradientUnits="userSpaceOnUse">
<stop stop-color="#C901C4"/>
<stop offset="0.479167" stop-color="#6D28D9"/>
<stop offset="1" stop-color="#625CF9"/>
</linearGradient>
<linearGradient id="paint54_linear_658_6046" x1="200.469" y1="840.988" x2="479.781" y2="1389.17" gradientUnits="userSpaceOnUse">
<stop stop-color="#C901C4"/>
<stop offset="0.479167" stop-color="#6D28D9"/>
<stop offset="1" stop-color="#625CF9"/>
</linearGradient>
<linearGradient id="paint55_linear_658_6046" x1="194.675" y1="839.233" x2="440.695" y2="1391.8" gradientUnits="userSpaceOnUse">
<stop stop-color="#C901C4"/>
<stop offset="0.479167" stop-color="#6D28D9"/>
<stop offset="1" stop-color="#625CF9"/>
</linearGradient>
<linearGradient id="paint56_linear_658_6046" x1="188.73" y1="838.421" x2="401.775" y2="1393.42" gradientUnits="userSpaceOnUse">
<stop stop-color="#C901C4"/>
<stop offset="0.479167" stop-color="#6D28D9"/>
<stop offset="1" stop-color="#625CF9"/>
</linearGradient>
<linearGradient id="paint57_linear_658_6046" x1="182.577" y1="838.53" x2="363.077" y2="1394.05" gradientUnits="userSpaceOnUse">
<stop stop-color="#C901C4"/>
<stop offset="0.479167" stop-color="#6D28D9"/>
<stop offset="1" stop-color="#625CF9"/>
</linearGradient>
<linearGradient id="paint58_linear_658_6046" x1="176.164" y1="839.534" x2="324.658" y2="1393.72" gradientUnits="userSpaceOnUse">
<stop stop-color="#C901C4"/>
<stop offset="0.479167" stop-color="#6D28D9"/>
<stop offset="1" stop-color="#625CF9"/>
</linearGradient>
<linearGradient id="paint59_linear_658_6046" x1="169.442" y1="841.406" x2="286.572" y2="1392.46" gradientUnits="userSpaceOnUse">
<stop stop-color="#C901C4"/>
<stop offset="0.479167" stop-color="#6D28D9"/>
<stop offset="1" stop-color="#625CF9"/>
</linearGradient>
<linearGradient id="paint60_linear_658_6046" x1="162.363" y1="844.114" x2="248.869" y2="1390.29" gradientUnits="userSpaceOnUse">
<stop stop-color="#C901C4"/>
<stop offset="0.479167" stop-color="#6D28D9"/>
<stop offset="1" stop-color="#625CF9"/>
</linearGradient>
<linearGradient id="paint61_linear_658_6046" x1="154.881" y1="847.626" x2="211.599" y2="1387.27" gradientUnits="userSpaceOnUse">
<stop stop-color="#C901C4"/>
<stop offset="0.479167" stop-color="#6D28D9"/>
<stop offset="1" stop-color="#625CF9"/>
</linearGradient>
<linearGradient id="paint62_linear_658_6046" x1="146.954" y1="851.905" x2="174.809" y2="1383.41" gradientUnits="userSpaceOnUse">
<stop stop-color="#C901C4"/>
<stop offset="0.479167" stop-color="#6D28D9"/>
<stop offset="1" stop-color="#625CF9"/>
</linearGradient>
<linearGradient id="paint63_linear_658_6046" x1="138.541" y1="856.914" x2="138.541" y2="1378.78" gradientUnits="userSpaceOnUse">
<stop stop-color="#C901C4"/>
<stop offset="0.479167" stop-color="#6D28D9"/>
<stop offset="1" stop-color="#625CF9"/>
</linearGradient>
<linearGradient id="paint64_linear_658_6046" x1="129.604" y1="862.612" x2="102.835" y2="1373.4" gradientUnits="userSpaceOnUse">
<stop stop-color="#C901C4"/>
<stop offset="0.479167" stop-color="#6D28D9"/>
<stop offset="1" stop-color="#625CF9"/>
</linearGradient>
<linearGradient id="paint65_linear_658_6046" x1="120.11" y1="868.958" x2="67.7291" y2="1367.33" gradientUnits="userSpaceOnUse">
<stop stop-color="#C901C4"/>
<stop offset="0.479167" stop-color="#6D28D9"/>
<stop offset="1" stop-color="#625CF9"/>
</linearGradient>
<linearGradient id="paint66_linear_658_6046" x1="110.025" y1="875.907" x2="33.2571" y2="1360.6" gradientUnits="userSpaceOnUse">
<stop stop-color="#C901C4"/>
<stop offset="0.479167" stop-color="#6D28D9"/>
<stop offset="1" stop-color="#625CF9"/>
</linearGradient>
<linearGradient id="paint67_linear_658_6046" x1="99.3229" y1="883.415" x2="-0.550114" y2="1353.28" gradientUnits="userSpaceOnUse">
<stop stop-color="#C901C4"/>
<stop offset="0.479167" stop-color="#6D28D9"/>
<stop offset="1" stop-color="#625CF9"/>
</linearGradient>
<linearGradient id="paint68_linear_658_6046" x1="87.9761" y1="891.434" x2="-33.6656" y2="1345.41" gradientUnits="userSpaceOnUse">
<stop stop-color="#C901C4"/>
<stop offset="0.479167" stop-color="#6D28D9"/>
<stop offset="1" stop-color="#625CF9"/>
</linearGradient>
</defs>
</svg>
